<svg id="Layer_1" data-name="Layer 1" xmlns="http://www.w3.org/2000/svg" viewBox="0 0 501 250"><defs><style>.cls-1{fill:#fff;}</style></defs><circle class="cls-1" cx="116.9" cy="181.95" r="10.74"/><path class="cls-1" d="M115.67,216.35c-25.85,0-47.76-17.44-60.12-47.84-10.87-26.71-1.36-56.71,5.89-66.12l6-7.78.87,9.79c.84,9.62,7.62,21.11,14.22,24.11a6.8,6.8,0,0,0,3,.67c-8.21-19.42-6.69-39.91-2.63-52.07C90.43,54.47,109.2,38.46,120,33.22l5.65-2.75-.14,6.28c-.4,18.12.75,33,7.66,46.84,4.47,9,10.47,17.75,15.77,25.5,1.45,2.13,2.86,4.2,4.2,6.2,10.07,15.11,10.22,30.81,7,40.47a51,51,0,0,1-8.21,15.06c-4.42,5.59-9.66,9.59-15.15,11.58l-2.62-7.21c8.92-3.23,15.94-13.59,18.7-21.86,2.64-7.93,2.43-21-6.11-33.78-1.32-2-2.71-4-4.15-6.13-5.43-8-11.59-17-16.3-26.4-6.69-13.38-8.49-27.31-8.53-43.56-9.44,6.56-22,19.43-27.57,36.08-.86,2.56-8,25.75,3.93,50l1.43,2.89-2.61,1.91a13,13,0,0,1-13.56,1.18c-7-3.19-13-11.52-16.19-20-4.53,11.72-8,31.7-.51,50.14,11.12,27.36,30.45,43,53,43,23.11,0,43.57-15.89,54.73-42.5,5.18-12.37,6-31.5,2-45.51-3-10.43-7.43-18.94-15.06-30.94-1.93,4.08-4.57,8.26-7.27,10.06l-4.26-6.38c2.21-1.48,6-9.22,6.8-13l1.82-9.19,5.15,7.83c10.47,15.93,16.46,26.41,20.2,39.48,4.5,15.76,3.54,36.56-2.33,50.58-5.79,13.81-14.29,25.46-24.59,33.71A59.2,59.2,0,0,1,115.67,216.35Z"/><path class="cls-1" d="M244.76,102.72h-5V60.79h13.51a22.73,22.73,0,0,1,5.57.64,14,14,0,0,1,4.43,2,8.7,8.7,0,0,1,3,3.53,11.73,11.73,0,0,1,1.06,5.15,19.78,19.78,0,0,1-.44,4.36,11.26,11.26,0,0,1-1.55,3.6,9,9,0,0,1-2.85,2.79A14.68,14.68,0,0,1,258,84.57a29,29,0,0,1-6.4.63q-2.9,0-6.84-.36Zm7.31-21.81a18.42,18.42,0,0,0,4.71-.53,9,9,0,0,0,3-1.32,5.38,5.38,0,0,0,1.66-2,7.87,7.87,0,0,0,.74-2.31,20.38,20.38,0,0,0,.14-2.54,6,6,0,0,0-2.4-5.24,11.15,11.15,0,0,0-6.51-1.68h-8.66V80.86Z"/><path class="cls-1" d="M270.27,72h5l9.7,25.59L293.56,72h5q-12.43,34.25-12.86,35.31a17.32,17.32,0,0,1-4.68,7.11,11,11,0,0,1-7.23,2.25,18.85,18.85,0,0,1-2.83-.22l-.28-4c1,.08,1.83.11,2.35.11a8.29,8.29,0,0,0,4.8-1.16,9.58,9.58,0,0,0,2.93-4.36q1.15-2.94,1.71-4.54Z"/><path class="cls-1" d="M314.65,102.72h-4.87V65.55H297V61.27H327.4v4.28H314.65Z"/><path class="cls-1" d="M351.45,87.33q0,7.14-3.81,11.59t-10.54,4.44a12.83,12.83,0,0,1-10.3-4.48A17.13,17.13,0,0,1,323,87.36q0-7.17,3.84-11.6t10.54-4.43q6.58,0,10.34,4.44T351.45,87.33Zm-23.63.08a14.4,14.4,0,0,0,2.43,8.76,8.21,8.21,0,0,0,7.07,3.3,8,8,0,0,0,6.94-3.28q2.34-3.28,2.34-8.83c0-3.76-.77-6.71-2.31-8.87s-3.89-3.24-7.05-3.24a8.12,8.12,0,0,0-7,3.31C328.63,80.76,327.82,83.71,327.82,87.41Z"/><path class="cls-1" d="M371.85,71.69a14.67,14.67,0,0,1,2.3.17L374,76.18a13.38,13.38,0,0,0-2.24-.23,8.16,8.16,0,0,0-6.38,2.74,9.76,9.76,0,0,0-2.45,6.76v17.27h-4.68q0-28.31,0-30.75h3.9l.45,5.52a13,13,0,0,1,4.06-4.2A9.43,9.43,0,0,1,371.85,71.69Z"/><path class="cls-1" d="M389.41,103.36q-6.78,0-10.61-4.4T375,87.44q0-7.17,3.91-11.64t10.63-4.47a17.61,17.61,0,0,1,4.61.59,10.22,10.22,0,0,1,3.52,1.54l-1.29,3.64a14.33,14.33,0,0,0-6.92-1.76,8.53,8.53,0,0,0-7.05,3.25q-2.59,3.24-2.59,8.88,0,5.49,2.56,8.7a8.6,8.6,0,0,0,7.11,3.21,16,16,0,0,0,7.4-2l.58,3.73A13.41,13.41,0,0,1,389.41,103.36Z"/><path class="cls-1" d="M424.25,102.72V84.14q0-4.64-1.48-6.73c-1-1.4-2.69-2.1-5.14-2.1a9.87,9.87,0,0,0-5.95,1.76,8,8,0,0,0-3.16,4.57,41.33,41.33,0,0,0-.25,4.68v16.4h-4.68V60l4.68-.28v12.5c0,1.07,0,2.38-.11,4a12.81,12.81,0,0,1,10.48-4.87q10.29,0,10.29,12.08v19.31Z"/><path class="cls-1" d="M226.81,182.88h-8.17V113h8.17Z"/><path class="cls-1" d="M246.28,206.59l-.71-7.13h9.64a37.68,37.68,0,0,0,7-.57,13.7,13.7,0,0,0,5-1.87,13.08,13.08,0,0,0,3.21-2.87,11.17,11.17,0,0,0,1.86-4.11,30.69,30.69,0,0,0,.85-5q.21-2.47.21-6.07v-4.58a21.12,21.12,0,0,1-6.56,6.26,18.54,18.54,0,0,1-9.49,2.2,21.29,21.29,0,0,1-8.19-1.54,19,19,0,0,1-6.33-4.08,25.14,25.14,0,0,1-4.4-5.91,27.4,27.4,0,0,1-2.64-6.94,32.11,32.11,0,0,1-.82-7.22,37.64,37.64,0,0,1,1.39-10.49,27.48,27.48,0,0,1,4.13-8.59,18.9,18.9,0,0,1,7.2-5.93A23.34,23.34,0,0,1,257.81,130a19.27,19.27,0,0,1,8.9,2,20.05,20.05,0,0,1,6.82,6v-6.9h7.7v48.07c0,2.21-.06,4.14-.17,5.79a39,39,0,0,1-.8,5.5,21.63,21.63,0,0,1-1.72,5.19,20.55,20.55,0,0,1-3.05,4.37,15.32,15.32,0,0,1-4.68,3.54,28.62,28.62,0,0,1-6.72,2.2,43.78,43.78,0,0,1-9.07.85Zm12.14-30.46a16.39,16.39,0,0,0,7-1.42,11.43,11.43,0,0,0,4.72-3.92,18.2,18.2,0,0,0,2.52-5.57,25.72,25.72,0,0,0,.83-6.7v-3.83a26.76,26.76,0,0,0-.85-7,18,18,0,0,0-2.62-5.72,12,12,0,0,0-4.72-3.94,15.79,15.79,0,0,0-6.87-1.42,14,14,0,0,0-5.93,1.23,12.76,12.76,0,0,0-4.39,3.23,19.45,19.45,0,0,0-2.93,4.68,23.77,23.77,0,0,0-1.72,5.41,29.24,29.24,0,0,0-.52,5.52,26.76,26.76,0,0,0,.56,5.43,22.89,22.89,0,0,0,1.8,5.24,18.71,18.71,0,0,0,3,4.47,13.37,13.37,0,0,0,4.37,3.09A13.77,13.77,0,0,0,258.42,176.13Z"/><path class="cls-1" d="M292.35,182.88v-51.8H299l1,7.41a23,23,0,0,1,7.67-6.16,21.75,21.75,0,0,1,9.94-2.34q9,0,13.27,5t4.3,15.46v32.39h-7.89q0-31.15-.05-33.38-.18-6.62-2.66-9.68t-8.29-3.07a16.84,16.84,0,0,0-10.15,2.93,13.29,13.29,0,0,0-5.29,7.6,49,49,0,0,0-.47,7.27v28.33Z"/><path class="cls-1" d="M353.57,112.24v9.35h-7.94v-9.35Zm0,18.84v51.8h-7.94v-51.8Z"/><path class="cls-1" d="M384.92,183.83q-7.65,0-10.86-3.73t-3.4-12V136.94H363l.34-5.2,7.31-.66,2.7-11.85,5.19-.19v12h14.4v5.86H378.5v29.7q0,5.9,1.8,8.31c1.19,1.61,3.24,2.41,6.13,2.41a60.73,60.73,0,0,0,6.76-.76l.33,6.24A53.69,53.69,0,0,1,384.92,183.83Z"/><path class="cls-1" d="M421.31,184q-11.28,0-17.77-7.18T397,157.15q0-12,6.28-19.53A21,21,0,0,1,419.85,130q9.63,0,15.27,6.59t5.65,17.59c0,.38,0,1.07,0,2.08s0,1.73,0,2.17H405.16q.15,8.84,4.56,13.77t11.88,4.93a35.25,35.25,0,0,0,16.48-4.34l1.23,6.37A33.86,33.86,0,0,1,421.31,184Zm8-43.33a11.76,11.76,0,0,0-9.51-4.13,12.64,12.64,0,0,0-9.87,4.28q-3.83,4.28-4.49,11.68h27.34Q432.74,144.78,429.27,140.64Z"/></svg>
