<?xml version="1.0" encoding="UTF-8" standalone="no"?>
<!DOCTYPE svg PUBLIC "-//W3C//DTD SVG 1.1//EN" "http://www.w3.org/Graphics/SVG/1.1/DTD/svg11.dtd">
<!-- Generated by graphviz version 2.38.0 (20140413.2041)
 -->
<!-- Title: G Pages: 1 -->
<svg width="1080pt" height="58pt" viewBox="0.00 0.00 1080.00 57.75" xmlns="http://www.w3.org/2000/svg" xmlns:xlink="http://www.w3.org/1999/xlink">
<g id="graph0" class="graph" transform="scale(0.302352 0.302352) rotate(0) translate(4 187)">
<title>G</title>
<polygon fill="white" stroke="none" points="-4,4 -4,-187 3568,-187 3568,4 -4,4"/>
<g id="clust1" class="cluster"><title>cluster_prep</title>
<path fill="#777777" fill-opacity="0.266667" stroke="black" d="M94,-48C94,-48 410,-48 410,-48 416,-48 422,-54 422,-60 422,-60 422,-111 422,-111 422,-117 416,-123 410,-123 410,-123 94,-123 94,-123 88,-123 82,-117 82,-111 82,-111 82,-60 82,-60 82,-54 88,-48 94,-48"/>
<text text-anchor="middle" x="252" y="-107.8" font-family="Times,serif" font-size="14.00">prep</text>
</g>
<g id="clust2" class="cluster"><title>cluster_layer1</title>
<path fill="#777777" fill-opacity="0.266667" stroke="black" d="M454,-12C454,-12 1588,-12 1588,-12 1594,-12 1600,-18 1600,-24 1600,-24 1600,-163 1600,-163 1600,-169 1594,-175 1588,-175 1588,-175 454,-175 454,-175 448,-175 442,-169 442,-163 442,-163 442,-24 442,-24 442,-18 448,-12 454,-12"/>
<text text-anchor="middle" x="1021" y="-159.8" font-family="Times,serif" font-size="14.00">layer1</text>
</g>
<g id="clust3" class="cluster"><title>cluster_layer1_residual</title>
<path fill="#777777" fill-opacity="0.266667" stroke="black" d="M814,-20C814,-20 1580,-20 1580,-20 1586,-20 1592,-26 1592,-32 1592,-32 1592,-132 1592,-132 1592,-138 1586,-144 1580,-144 1580,-144 814,-144 814,-144 808,-144 802,-138 802,-132 802,-132 802,-32 802,-32 802,-26 808,-20 814,-20"/>
<text text-anchor="middle" x="1197" y="-128.8" font-family="Times,serif" font-size="14.00">residual</text>
</g>
<g id="clust4" class="cluster"><title>cluster_layer1_residual_res1</title>
<path fill="#777777" fill-opacity="0.266667" stroke="black" d="M904,-28C904,-28 1130,-28 1130,-28 1136,-28 1142,-34 1142,-40 1142,-40 1142,-91 1142,-91 1142,-97 1136,-103 1130,-103 1130,-103 904,-103 904,-103 898,-103 892,-97 892,-91 892,-91 892,-40 892,-40 892,-34 898,-28 904,-28"/>
<text text-anchor="middle" x="1017" y="-87.8" font-family="Times,serif" font-size="14.00">res1</text>
</g>
<g id="clust5" class="cluster"><title>cluster_layer1_residual_res2</title>
<path fill="#777777" fill-opacity="0.266667" stroke="black" d="M1174,-28C1174,-28 1400,-28 1400,-28 1406,-28 1412,-34 1412,-40 1412,-40 1412,-91 1412,-91 1412,-97 1406,-103 1400,-103 1400,-103 1174,-103 1174,-103 1168,-103 1162,-97 1162,-91 1162,-91 1162,-40 1162,-40 1162,-34 1168,-28 1174,-28"/>
<text text-anchor="middle" x="1287" y="-87.8" font-family="Times,serif" font-size="14.00">res2</text>
</g>
<g id="clust6" class="cluster"><title>cluster_layer2</title>
<path fill="#777777" fill-opacity="0.266667" stroke="black" d="M1624,-53C1624,-53 1940,-53 1940,-53 1946,-53 1952,-59 1952,-65 1952,-65 1952,-116 1952,-116 1952,-122 1946,-128 1940,-128 1940,-128 1624,-128 1624,-128 1618,-128 1612,-122 1612,-116 1612,-116 1612,-65 1612,-65 1612,-59 1618,-53 1624,-53"/>
<text text-anchor="middle" x="1782" y="-112.8" font-family="Times,serif" font-size="14.00">layer2</text>
</g>
<g id="clust7" class="cluster"><title>cluster_layer3</title>
<path fill="#777777" fill-opacity="0.266667" stroke="black" d="M1984,-8C1984,-8 3118,-8 3118,-8 3124,-8 3130,-14 3130,-20 3130,-20 3130,-159 3130,-159 3130,-165 3124,-171 3118,-171 3118,-171 1984,-171 1984,-171 1978,-171 1972,-165 1972,-159 1972,-159 1972,-20 1972,-20 1972,-14 1978,-8 1984,-8"/>
<text text-anchor="middle" x="2551" y="-155.8" font-family="Times,serif" font-size="14.00">layer3</text>
</g>
<g id="clust8" class="cluster"><title>cluster_layer3_residual</title>
<path fill="#777777" fill-opacity="0.266667" stroke="black" d="M2344,-16C2344,-16 3110,-16 3110,-16 3116,-16 3122,-22 3122,-28 3122,-28 3122,-128 3122,-128 3122,-134 3116,-140 3110,-140 3110,-140 2344,-140 2344,-140 2338,-140 2332,-134 2332,-128 2332,-128 2332,-28 2332,-28 2332,-22 2338,-16 2344,-16"/>
<text text-anchor="middle" x="2727" y="-124.8" font-family="Times,serif" font-size="14.00">residual</text>
</g>
<g id="clust9" class="cluster"><title>cluster_layer3_residual_res1</title>
<path fill="#777777" fill-opacity="0.266667" stroke="black" d="M2434,-24C2434,-24 2660,-24 2660,-24 2666,-24 2672,-30 2672,-36 2672,-36 2672,-87 2672,-87 2672,-93 2666,-99 2660,-99 2660,-99 2434,-99 2434,-99 2428,-99 2422,-93 2422,-87 2422,-87 2422,-36 2422,-36 2422,-30 2428,-24 2434,-24"/>
<text text-anchor="middle" x="2547" y="-83.8" font-family="Times,serif" font-size="14.00">res1</text>
</g>
<g id="clust10" class="cluster"><title>cluster_layer3_residual_res2</title>
<path fill="#777777" fill-opacity="0.266667" stroke="black" d="M2704,-24C2704,-24 2930,-24 2930,-24 2936,-24 2942,-30 2942,-36 2942,-36 2942,-87 2942,-87 2942,-93 2936,-99 2930,-99 2930,-99 2704,-99 2704,-99 2698,-99 2692,-93 2692,-87 2692,-87 2692,-36 2692,-36 2692,-30 2698,-24 2704,-24"/>
<text text-anchor="middle" x="2817" y="-83.8" font-family="Times,serif" font-size="14.00">res2</text>
</g>
<g id="clust11" class="cluster"><title>cluster_classifier</title>
<path fill="#777777" fill-opacity="0.266667" stroke="black" d="M3244,-49C3244,-49 3470,-49 3470,-49 3476,-49 3482,-55 3482,-61 3482,-61 3482,-112 3482,-112 3482,-118 3476,-124 3470,-124 3470,-124 3244,-124 3244,-124 3238,-124 3232,-118 3232,-112 3232,-112 3232,-61 3232,-61 3232,-55 3238,-49 3244,-49"/>
<text text-anchor="middle" x="3357" y="-108.8" font-family="Times,serif" font-size="14.00">classifier</text>
</g>
<!-- prep_whiten -->
<g id="node1" class="node"><title>prep_whiten</title>
<g id="a_node1"><a xlink:title="&lt;function identity at 0x7f414a26c6a8&gt; {'value': Conv2d(3, 27, kernel_size=(3, 3), stride=(1, 1), padding=(1, 1), bias=False)}">
<path fill="#dea05e" stroke="black" d="M132,-92C132,-92 102,-92 102,-92 96,-92 90,-86 90,-80 90,-80 90,-68 90,-68 90,-62 96,-56 102,-56 102,-56 132,-56 132,-56 138,-56 144,-62 144,-68 144,-68 144,-80 144,-80 144,-86 138,-92 132,-92"/>
<text text-anchor="middle" x="117" y="-70.3" font-family="Times,serif" font-size="14.00">whiten</text>
</a>
</g>
</g>
<!-- prep_conv -->
<g id="node2" class="node"><title>prep_conv</title>
<g id="a_node2"><a xlink:title="&lt;class 'torch.nn.modules.conv.Conv2d'&gt; {'in_channels': 27, 'out_channels': 64, 'kernel_size': (1, 1), 'bias': False}">
<path fill="#bebada" stroke="black" d="M222,-92C222,-92 192,-92 192,-92 186,-92 180,-86 180,-80 180,-80 180,-68 180,-68 180,-62 186,-56 192,-56 192,-56 222,-56 222,-56 228,-56 234,-62 234,-68 234,-68 234,-80 234,-80 234,-86 228,-92 222,-92"/>
<text text-anchor="middle" x="207" y="-70.3" font-family="Times,serif" font-size="14.00">conv</text>
</a>
</g>
</g>
<!-- prep_whiten&#45;&gt;prep_conv -->
<g id="edge2" class="edge"><title>prep_whiten-&gt;prep_conv</title>
<path fill="none" stroke="black" d="M144.403,-74C152.393,-74 161.311,-74 169.824,-74"/>
<polygon fill="black" stroke="black" points="169.919,-77.5001 179.919,-74 169.919,-70.5001 169.919,-77.5001"/>
</g>
<!-- prep_norm -->
<g id="node3" class="node"><title>prep_norm</title>
<g id="a_node3"><a xlink:title="functools.partial(&lt;class '__main__.GhostBatchNorm'&gt;, num_splits=16, weight=False) {'num_features': 64}">
<path fill="#d0c281" stroke="black" d="M312,-92C312,-92 282,-92 282,-92 276,-92 270,-86 270,-80 270,-80 270,-68 270,-68 270,-62 276,-56 282,-56 282,-56 312,-56 312,-56 318,-56 324,-62 324,-68 324,-68 324,-80 324,-80 324,-86 318,-92 312,-92"/>
<text text-anchor="middle" x="297" y="-70.3" font-family="Times,serif" font-size="14.00">norm</text>
</a>
</g>
</g>
<!-- prep_conv&#45;&gt;prep_norm -->
<g id="edge3" class="edge"><title>prep_conv-&gt;prep_norm</title>
<path fill="none" stroke="black" d="M234.403,-74C242.393,-74 251.311,-74 259.824,-74"/>
<polygon fill="black" stroke="black" points="259.919,-77.5001 269.919,-74 259.919,-70.5001 259.919,-77.5001"/>
</g>
<!-- prep_act -->
<g id="node4" class="node"><title>prep_act</title>
<g id="a_node4"><a xlink:title="functools.partial(&lt;class 'torch.nn.modules.activation.CELU'&gt;, 0.3) {}">
<path fill="#f0e189" stroke="black" d="M402,-92C402,-92 372,-92 372,-92 366,-92 360,-86 360,-80 360,-80 360,-68 360,-68 360,-62 366,-56 372,-56 372,-56 402,-56 402,-56 408,-56 414,-62 414,-68 414,-68 414,-80 414,-80 414,-86 408,-92 402,-92"/>
<text text-anchor="middle" x="387" y="-70.3" font-family="Times,serif" font-size="14.00">act</text>
</a>
</g>
</g>
<!-- prep_norm&#45;&gt;prep_act -->
<g id="edge4" class="edge"><title>prep_norm-&gt;prep_act</title>
<path fill="none" stroke="black" d="M324.403,-74C332.393,-74 341.311,-74 349.824,-74"/>
<polygon fill="black" stroke="black" points="349.919,-77.5001 359.919,-74 349.919,-70.5001 349.919,-77.5001"/>
</g>
<!-- layer1_conv -->
<g id="node5" class="node"><title>layer1_conv</title>
<g id="a_node5"><a xlink:title="&lt;class 'torch.nn.modules.conv.Conv2d'&gt; {'in_channels': 64, 'out_channels': 128, 'kernel_size': (3, 3), 'stride': (1, 1), 'padding': (1, 1), 'bias': False}">
<path fill="#bebada" stroke="black" d="M492,-92C492,-92 462,-92 462,-92 456,-92 450,-86 450,-80 450,-80 450,-68 450,-68 450,-62 456,-56 462,-56 462,-56 492,-56 492,-56 498,-56 504,-62 504,-68 504,-68 504,-80 504,-80 504,-86 498,-92 492,-92"/>
<text text-anchor="middle" x="477" y="-70.3" font-family="Times,serif" font-size="14.00">conv</text>
</a>
</g>
</g>
<!-- prep_act&#45;&gt;layer1_conv -->
<g id="edge5" class="edge"><title>prep_act-&gt;layer1_conv</title>
<path fill="none" stroke="black" d="M414.403,-74C422.393,-74 431.311,-74 439.824,-74"/>
<polygon fill="black" stroke="black" points="439.919,-77.5001 449.919,-74 439.919,-70.5001 439.919,-77.5001"/>
</g>
<!-- layer1_pool -->
<g id="node6" class="node"><title>layer1_pool</title>
<g id="a_node6"><a xlink:title="&lt;class 'torch.nn.modules.pooling.MaxPool2d'&gt; {'kernel_size': 2}">
<path fill="#8dd3c7" stroke="black" d="M582,-92C582,-92 552,-92 552,-92 546,-92 540,-86 540,-80 540,-80 540,-68 540,-68 540,-62 546,-56 552,-56 552,-56 582,-56 582,-56 588,-56 594,-62 594,-68 594,-68 594,-80 594,-80 594,-86 588,-92 582,-92"/>
<text text-anchor="middle" x="567" y="-70.3" font-family="Times,serif" font-size="14.00">pool</text>
</a>
</g>
</g>
<!-- layer1_conv&#45;&gt;layer1_pool -->
<g id="edge6" class="edge"><title>layer1_conv-&gt;layer1_pool</title>
<path fill="none" stroke="black" d="M504.403,-74C512.393,-74 521.311,-74 529.824,-74"/>
<polygon fill="black" stroke="black" points="529.919,-77.5001 539.919,-74 529.919,-70.5001 529.919,-77.5001"/>
</g>
<!-- layer1_norm -->
<g id="node7" class="node"><title>layer1_norm</title>
<g id="a_node7"><a xlink:title="functools.partial(&lt;class '__main__.GhostBatchNorm'&gt;, num_splits=16, weight=False) {'num_features': 128}">
<path fill="#d0c281" stroke="black" d="M672,-92C672,-92 642,-92 642,-92 636,-92 630,-86 630,-80 630,-80 630,-68 630,-68 630,-62 636,-56 642,-56 642,-56 672,-56 672,-56 678,-56 684,-62 684,-68 684,-68 684,-80 684,-80 684,-86 678,-92 672,-92"/>
<text text-anchor="middle" x="657" y="-70.3" font-family="Times,serif" font-size="14.00">norm</text>
</a>
</g>
</g>
<!-- layer1_pool&#45;&gt;layer1_norm -->
<g id="edge7" class="edge"><title>layer1_pool-&gt;layer1_norm</title>
<path fill="none" stroke="black" d="M594.403,-74C602.393,-74 611.311,-74 619.824,-74"/>
<polygon fill="black" stroke="black" points="619.919,-77.5001 629.919,-74 619.919,-70.5001 619.919,-77.5001"/>
</g>
<!-- layer1_act -->
<g id="node8" class="node"><title>layer1_act</title>
<g id="a_node8"><a xlink:title="functools.partial(&lt;class 'torch.nn.modules.activation.CELU'&gt;, 0.3) {}">
<path fill="#f0e189" stroke="black" d="M762,-92C762,-92 732,-92 732,-92 726,-92 720,-86 720,-80 720,-80 720,-68 720,-68 720,-62 726,-56 732,-56 732,-56 762,-56 762,-56 768,-56 774,-62 774,-68 774,-68 774,-80 774,-80 774,-86 768,-92 762,-92"/>
<text text-anchor="middle" x="747" y="-70.3" font-family="Times,serif" font-size="14.00">act</text>
</a>
</g>
</g>
<!-- layer1_norm&#45;&gt;layer1_act -->
<g id="edge8" class="edge"><title>layer1_norm-&gt;layer1_act</title>
<path fill="none" stroke="black" d="M684.403,-74C692.393,-74 701.311,-74 709.824,-74"/>
<polygon fill="black" stroke="black" points="709.919,-77.5001 719.919,-74 709.919,-70.5001 709.919,-77.5001"/>
</g>
<!-- layer1_residual_in -->
<g id="node9" class="node"><title>layer1_residual_in</title>
<g id="a_node9"><a xlink:title="&lt;class '__main__.Identity'&gt; {}">
<path fill="#80b1d3" stroke="black" d="M852,-92C852,-92 822,-92 822,-92 816,-92 810,-86 810,-80 810,-80 810,-68 810,-68 810,-62 816,-56 822,-56 822,-56 852,-56 852,-56 858,-56 864,-62 864,-68 864,-68 864,-80 864,-80 864,-86 858,-92 852,-92"/>
<text text-anchor="middle" x="837" y="-70.3" font-family="Times,serif" font-size="14.00">in</text>
</a>
</g>
</g>
<!-- layer1_act&#45;&gt;layer1_residual_in -->
<g id="edge9" class="edge"><title>layer1_act-&gt;layer1_residual_in</title>
<path fill="none" stroke="black" d="M774.403,-74C782.393,-74 791.311,-74 799.824,-74"/>
<polygon fill="black" stroke="black" points="799.919,-77.5001 809.919,-74 799.919,-70.5001 799.919,-77.5001"/>
</g>
<!-- layer1_residual_res1_conv -->
<g id="node10" class="node"><title>layer1_residual_res1_conv</title>
<g id="a_node10"><a xlink:title="&lt;class 'torch.nn.modules.conv.Conv2d'&gt; {'in_channels': 128, 'out_channels': 128, 'kernel_size': (3, 3), 'stride': (1, 1), 'padding': (1, 1), 'bias': False}">
<path fill="#bebada" stroke="black" d="M942,-72C942,-72 912,-72 912,-72 906,-72 900,-66 900,-60 900,-60 900,-48 900,-48 900,-42 906,-36 912,-36 912,-36 942,-36 942,-36 948,-36 954,-42 954,-48 954,-48 954,-60 954,-60 954,-66 948,-72 942,-72"/>
<text text-anchor="middle" x="927" y="-50.3" font-family="Times,serif" font-size="14.00">conv</text>
</a>
</g>
</g>
<!-- layer1_residual_in&#45;&gt;layer1_residual_res1_conv -->
<g id="edge10" class="edge"><title>layer1_residual_in-&gt;layer1_residual_res1_conv</title>
<path fill="none" stroke="black" d="M864.403,-67.9993C872.481,-66.1634 881.507,-64.1121 890.105,-62.158"/>
<polygon fill="black" stroke="black" points="890.943,-65.5568 899.919,-59.9275 889.392,-58.7308 890.943,-65.5568"/>
</g>
<!-- layer1_residual_add -->
<g id="node17" class="node"><title>layer1_residual_add</title>
<g id="a_node17"><a xlink:title="&lt;class '__main__.Add'&gt; {}">
<path fill="#fdb462" stroke="black" d="M1572,-97C1572,-97 1542,-97 1542,-97 1536,-97 1530,-91 1530,-85 1530,-85 1530,-73 1530,-73 1530,-67 1536,-61 1542,-61 1542,-61 1572,-61 1572,-61 1578,-61 1584,-67 1584,-73 1584,-73 1584,-85 1584,-85 1584,-91 1578,-97 1572,-97"/>
<text text-anchor="middle" x="1557" y="-75.3" font-family="Times,serif" font-size="14.00">add</text>
</a>
</g>
</g>
<!-- layer1_residual_in&#45;&gt;layer1_residual_add -->
<g id="edge17" class="edge"><title>layer1_residual_in-&gt;layer1_residual_add</title>
<path fill="none" stroke="black" d="M861.737,-92.1018C870.735,-97.9639 881.381,-103.78 892,-107 944.782,-123.006 960.844,-112 1016,-112 1016,-112 1016,-112 1378,-112 1427.77,-112 1484.08,-99.3711 1519.8,-89.7384"/>
<polygon fill="black" stroke="black" points="1521.04,-93.0265 1529.74,-86.9884 1519.17,-86.2796 1521.04,-93.0265"/>
</g>
<!-- layer1_residual_res1_norm -->
<g id="node11" class="node"><title>layer1_residual_res1_norm</title>
<g id="a_node11"><a xlink:title="functools.partial(&lt;class '__main__.GhostBatchNorm'&gt;, num_splits=16, weight=False) {'num_features': 128}">
<path fill="#d0c281" stroke="black" d="M1032,-72C1032,-72 1002,-72 1002,-72 996,-72 990,-66 990,-60 990,-60 990,-48 990,-48 990,-42 996,-36 1002,-36 1002,-36 1032,-36 1032,-36 1038,-36 1044,-42 1044,-48 1044,-48 1044,-60 1044,-60 1044,-66 1038,-72 1032,-72"/>
<text text-anchor="middle" x="1017" y="-50.3" font-family="Times,serif" font-size="14.00">norm</text>
</a>
</g>
</g>
<!-- layer1_residual_res1_conv&#45;&gt;layer1_residual_res1_norm -->
<g id="edge11" class="edge"><title>layer1_residual_res1_conv-&gt;layer1_residual_res1_norm</title>
<path fill="none" stroke="black" d="M954.403,-54C962.393,-54 971.311,-54 979.824,-54"/>
<polygon fill="black" stroke="black" points="979.919,-57.5001 989.919,-54 979.919,-50.5001 979.919,-57.5001"/>
</g>
<!-- layer1_residual_res1_act -->
<g id="node12" class="node"><title>layer1_residual_res1_act</title>
<g id="a_node12"><a xlink:title="functools.partial(&lt;class 'torch.nn.modules.activation.CELU'&gt;, 0.3) {}">
<path fill="#f0e189" stroke="black" d="M1122,-72C1122,-72 1092,-72 1092,-72 1086,-72 1080,-66 1080,-60 1080,-60 1080,-48 1080,-48 1080,-42 1086,-36 1092,-36 1092,-36 1122,-36 1122,-36 1128,-36 1134,-42 1134,-48 1134,-48 1134,-60 1134,-60 1134,-66 1128,-72 1122,-72"/>
<text text-anchor="middle" x="1107" y="-50.3" font-family="Times,serif" font-size="14.00">act</text>
</a>
</g>
</g>
<!-- layer1_residual_res1_norm&#45;&gt;layer1_residual_res1_act -->
<g id="edge12" class="edge"><title>layer1_residual_res1_norm-&gt;layer1_residual_res1_act</title>
<path fill="none" stroke="black" d="M1044.4,-54C1052.39,-54 1061.31,-54 1069.82,-54"/>
<polygon fill="black" stroke="black" points="1069.92,-57.5001 1079.92,-54 1069.92,-50.5001 1069.92,-57.5001"/>
</g>
<!-- layer1_residual_res2_conv -->
<g id="node13" class="node"><title>layer1_residual_res2_conv</title>
<g id="a_node13"><a xlink:title="&lt;class 'torch.nn.modules.conv.Conv2d'&gt; {'in_channels': 128, 'out_channels': 128, 'kernel_size': (3, 3), 'stride': (1, 1), 'padding': (1, 1), 'bias': False}">
<path fill="#bebada" stroke="black" d="M1212,-72C1212,-72 1182,-72 1182,-72 1176,-72 1170,-66 1170,-60 1170,-60 1170,-48 1170,-48 1170,-42 1176,-36 1182,-36 1182,-36 1212,-36 1212,-36 1218,-36 1224,-42 1224,-48 1224,-48 1224,-60 1224,-60 1224,-66 1218,-72 1212,-72"/>
<text text-anchor="middle" x="1197" y="-50.3" font-family="Times,serif" font-size="14.00">conv</text>
</a>
</g>
</g>
<!-- layer1_residual_res1_act&#45;&gt;layer1_residual_res2_conv -->
<g id="edge13" class="edge"><title>layer1_residual_res1_act-&gt;layer1_residual_res2_conv</title>
<path fill="none" stroke="black" d="M1134.4,-54C1142.39,-54 1151.31,-54 1159.82,-54"/>
<polygon fill="black" stroke="black" points="1159.92,-57.5001 1169.92,-54 1159.92,-50.5001 1159.92,-57.5001"/>
</g>
<!-- layer1_residual_res2_norm -->
<g id="node14" class="node"><title>layer1_residual_res2_norm</title>
<g id="a_node14"><a xlink:title="functools.partial(&lt;class '__main__.GhostBatchNorm'&gt;, num_splits=16, weight=False) {'num_features': 128}">
<path fill="#d0c281" stroke="black" d="M1302,-72C1302,-72 1272,-72 1272,-72 1266,-72 1260,-66 1260,-60 1260,-60 1260,-48 1260,-48 1260,-42 1266,-36 1272,-36 1272,-36 1302,-36 1302,-36 1308,-36 1314,-42 1314,-48 1314,-48 1314,-60 1314,-60 1314,-66 1308,-72 1302,-72"/>
<text text-anchor="middle" x="1287" y="-50.3" font-family="Times,serif" font-size="14.00">norm</text>
</a>
</g>
</g>
<!-- layer1_residual_res2_conv&#45;&gt;layer1_residual_res2_norm -->
<g id="edge14" class="edge"><title>layer1_residual_res2_conv-&gt;layer1_residual_res2_norm</title>
<path fill="none" stroke="black" d="M1224.4,-54C1232.39,-54 1241.31,-54 1249.82,-54"/>
<polygon fill="black" stroke="black" points="1249.92,-57.5001 1259.92,-54 1249.92,-50.5001 1249.92,-57.5001"/>
</g>
<!-- layer1_residual_res2_act -->
<g id="node15" class="node"><title>layer1_residual_res2_act</title>
<g id="a_node15"><a xlink:title="functools.partial(&lt;class 'torch.nn.modules.activation.CELU'&gt;, 0.3) {}">
<path fill="#f0e189" stroke="black" d="M1392,-72C1392,-72 1362,-72 1362,-72 1356,-72 1350,-66 1350,-60 1350,-60 1350,-48 1350,-48 1350,-42 1356,-36 1362,-36 1362,-36 1392,-36 1392,-36 1398,-36 1404,-42 1404,-48 1404,-48 1404,-60 1404,-60 1404,-66 1398,-72 1392,-72"/>
<text text-anchor="middle" x="1377" y="-50.3" font-family="Times,serif" font-size="14.00">act</text>
</a>
</g>
</g>
<!-- layer1_residual_res2_norm&#45;&gt;layer1_residual_res2_act -->
<g id="edge15" class="edge"><title>layer1_residual_res2_norm-&gt;layer1_residual_res2_act</title>
<path fill="none" stroke="black" d="M1314.4,-54C1322.39,-54 1331.31,-54 1339.82,-54"/>
<polygon fill="black" stroke="black" points="1339.92,-57.5001 1349.92,-54 1339.92,-50.5001 1339.92,-57.5001"/>
</g>
<!-- layer1_residual_out -->
<g id="node16" class="node"><title>layer1_residual_out</title>
<g id="a_node16"><a xlink:title="&lt;class '__main__.Identity'&gt; {}">
<path fill="#80b1d3" stroke="black" d="M1482,-82C1482,-82 1452,-82 1452,-82 1446,-82 1440,-76 1440,-70 1440,-70 1440,-58 1440,-58 1440,-52 1446,-46 1452,-46 1452,-46 1482,-46 1482,-46 1488,-46 1494,-52 1494,-58 1494,-58 1494,-70 1494,-70 1494,-76 1488,-82 1482,-82"/>
<text text-anchor="middle" x="1467" y="-60.3" font-family="Times,serif" font-size="14.00">out</text>
</a>
</g>
</g>
<!-- layer1_residual_res2_act&#45;&gt;layer1_residual_out -->
<g id="edge16" class="edge"><title>layer1_residual_res2_act-&gt;layer1_residual_out</title>
<path fill="none" stroke="black" d="M1404.4,-57.0003C1412.39,-57.9083 1421.31,-58.9217 1429.82,-59.8891"/>
<polygon fill="black" stroke="black" points="1429.59,-63.3847 1439.92,-61.0362 1430.38,-56.4294 1429.59,-63.3847"/>
</g>
<!-- layer1_residual_out&#45;&gt;layer1_residual_add -->
<g id="edge18" class="edge"><title>layer1_residual_out-&gt;layer1_residual_add</title>
<path fill="none" stroke="black" d="M1494.4,-68.5005C1502.39,-69.8625 1511.31,-71.3825 1519.82,-72.8336"/>
<polygon fill="black" stroke="black" points="1519.47,-76.3242 1529.92,-74.5544 1520.65,-69.4237 1519.47,-76.3242"/>
</g>
<!-- layer2_conv -->
<g id="node18" class="node"><title>layer2_conv</title>
<g id="a_node18"><a xlink:title="&lt;class 'torch.nn.modules.conv.Conv2d'&gt; {'in_channels': 128, 'out_channels': 256, 'kernel_size': (3, 3), 'stride': (1, 1), 'padding': (1, 1), 'bias': False}">
<path fill="#bebada" stroke="black" d="M1662,-97C1662,-97 1632,-97 1632,-97 1626,-97 1620,-91 1620,-85 1620,-85 1620,-73 1620,-73 1620,-67 1626,-61 1632,-61 1632,-61 1662,-61 1662,-61 1668,-61 1674,-67 1674,-73 1674,-73 1674,-85 1674,-85 1674,-91 1668,-97 1662,-97"/>
<text text-anchor="middle" x="1647" y="-75.3" font-family="Times,serif" font-size="14.00">conv</text>
</a>
</g>
</g>
<!-- layer1_residual_add&#45;&gt;layer2_conv -->
<g id="edge19" class="edge"><title>layer1_residual_add-&gt;layer2_conv</title>
<path fill="none" stroke="black" d="M1584.4,-79C1592.39,-79 1601.31,-79 1609.82,-79"/>
<polygon fill="black" stroke="black" points="1609.92,-82.5001 1619.92,-79 1609.92,-75.5001 1609.92,-82.5001"/>
</g>
<!-- layer2_pool -->
<g id="node19" class="node"><title>layer2_pool</title>
<g id="a_node19"><a xlink:title="&lt;class 'torch.nn.modules.pooling.MaxPool2d'&gt; {'kernel_size': 2}">
<path fill="#8dd3c7" stroke="black" d="M1752,-97C1752,-97 1722,-97 1722,-97 1716,-97 1710,-91 1710,-85 1710,-85 1710,-73 1710,-73 1710,-67 1716,-61 1722,-61 1722,-61 1752,-61 1752,-61 1758,-61 1764,-67 1764,-73 1764,-73 1764,-85 1764,-85 1764,-91 1758,-97 1752,-97"/>
<text text-anchor="middle" x="1737" y="-75.3" font-family="Times,serif" font-size="14.00">pool</text>
</a>
</g>
</g>
<!-- layer2_conv&#45;&gt;layer2_pool -->
<g id="edge20" class="edge"><title>layer2_conv-&gt;layer2_pool</title>
<path fill="none" stroke="black" d="M1674.4,-79C1682.39,-79 1691.31,-79 1699.82,-79"/>
<polygon fill="black" stroke="black" points="1699.92,-82.5001 1709.92,-79 1699.92,-75.5001 1699.92,-82.5001"/>
</g>
<!-- layer2_norm -->
<g id="node20" class="node"><title>layer2_norm</title>
<g id="a_node20"><a xlink:title="functools.partial(&lt;class '__main__.GhostBatchNorm'&gt;, num_splits=16, weight=False) {'num_features': 256}">
<path fill="#d0c281" stroke="black" d="M1842,-97C1842,-97 1812,-97 1812,-97 1806,-97 1800,-91 1800,-85 1800,-85 1800,-73 1800,-73 1800,-67 1806,-61 1812,-61 1812,-61 1842,-61 1842,-61 1848,-61 1854,-67 1854,-73 1854,-73 1854,-85 1854,-85 1854,-91 1848,-97 1842,-97"/>
<text text-anchor="middle" x="1827" y="-75.3" font-family="Times,serif" font-size="14.00">norm</text>
</a>
</g>
</g>
<!-- layer2_pool&#45;&gt;layer2_norm -->
<g id="edge21" class="edge"><title>layer2_pool-&gt;layer2_norm</title>
<path fill="none" stroke="black" d="M1764.4,-79C1772.39,-79 1781.31,-79 1789.82,-79"/>
<polygon fill="black" stroke="black" points="1789.92,-82.5001 1799.92,-79 1789.92,-75.5001 1789.92,-82.5001"/>
</g>
<!-- layer2_act -->
<g id="node21" class="node"><title>layer2_act</title>
<g id="a_node21"><a xlink:title="functools.partial(&lt;class 'torch.nn.modules.activation.CELU'&gt;, 0.3) {}">
<path fill="#f0e189" stroke="black" d="M1932,-97C1932,-97 1902,-97 1902,-97 1896,-97 1890,-91 1890,-85 1890,-85 1890,-73 1890,-73 1890,-67 1896,-61 1902,-61 1902,-61 1932,-61 1932,-61 1938,-61 1944,-67 1944,-73 1944,-73 1944,-85 1944,-85 1944,-91 1938,-97 1932,-97"/>
<text text-anchor="middle" x="1917" y="-75.3" font-family="Times,serif" font-size="14.00">act</text>
</a>
</g>
</g>
<!-- layer2_norm&#45;&gt;layer2_act -->
<g id="edge22" class="edge"><title>layer2_norm-&gt;layer2_act</title>
<path fill="none" stroke="black" d="M1854.4,-79C1862.39,-79 1871.31,-79 1879.82,-79"/>
<polygon fill="black" stroke="black" points="1879.92,-82.5001 1889.92,-79 1879.92,-75.5001 1879.92,-82.5001"/>
</g>
<!-- layer3_conv -->
<g id="node22" class="node"><title>layer3_conv</title>
<g id="a_node22"><a xlink:title="&lt;class 'torch.nn.modules.conv.Conv2d'&gt; {'in_channels': 256, 'out_channels': 512, 'kernel_size': (3, 3), 'stride': (1, 1), 'padding': (1, 1), 'bias': False}">
<path fill="#bebada" stroke="black" d="M2022,-97C2022,-97 1992,-97 1992,-97 1986,-97 1980,-91 1980,-85 1980,-85 1980,-73 1980,-73 1980,-67 1986,-61 1992,-61 1992,-61 2022,-61 2022,-61 2028,-61 2034,-67 2034,-73 2034,-73 2034,-85 2034,-85 2034,-91 2028,-97 2022,-97"/>
<text text-anchor="middle" x="2007" y="-75.3" font-family="Times,serif" font-size="14.00">conv</text>
</a>
</g>
</g>
<!-- layer2_act&#45;&gt;layer3_conv -->
<g id="edge23" class="edge"><title>layer2_act-&gt;layer3_conv</title>
<path fill="none" stroke="black" d="M1944.4,-79C1952.39,-79 1961.31,-79 1969.82,-79"/>
<polygon fill="black" stroke="black" points="1969.92,-82.5001 1979.92,-79 1969.92,-75.5001 1969.92,-82.5001"/>
</g>
<!-- layer3_pool -->
<g id="node23" class="node"><title>layer3_pool</title>
<g id="a_node23"><a xlink:title="&lt;class 'torch.nn.modules.pooling.MaxPool2d'&gt; {'kernel_size': 2}">
<path fill="#8dd3c7" stroke="black" d="M2112,-97C2112,-97 2082,-97 2082,-97 2076,-97 2070,-91 2070,-85 2070,-85 2070,-73 2070,-73 2070,-67 2076,-61 2082,-61 2082,-61 2112,-61 2112,-61 2118,-61 2124,-67 2124,-73 2124,-73 2124,-85 2124,-85 2124,-91 2118,-97 2112,-97"/>
<text text-anchor="middle" x="2097" y="-75.3" font-family="Times,serif" font-size="14.00">pool</text>
</a>
</g>
</g>
<!-- layer3_conv&#45;&gt;layer3_pool -->
<g id="edge24" class="edge"><title>layer3_conv-&gt;layer3_pool</title>
<path fill="none" stroke="black" d="M2034.4,-79C2042.39,-79 2051.31,-79 2059.82,-79"/>
<polygon fill="black" stroke="black" points="2059.92,-82.5001 2069.92,-79 2059.92,-75.5001 2059.92,-82.5001"/>
</g>
<!-- layer3_norm -->
<g id="node24" class="node"><title>layer3_norm</title>
<g id="a_node24"><a xlink:title="functools.partial(&lt;class '__main__.GhostBatchNorm'&gt;, num_splits=16, weight=False) {'num_features': 512}">
<path fill="#d0c281" stroke="black" d="M2202,-97C2202,-97 2172,-97 2172,-97 2166,-97 2160,-91 2160,-85 2160,-85 2160,-73 2160,-73 2160,-67 2166,-61 2172,-61 2172,-61 2202,-61 2202,-61 2208,-61 2214,-67 2214,-73 2214,-73 2214,-85 2214,-85 2214,-91 2208,-97 2202,-97"/>
<text text-anchor="middle" x="2187" y="-75.3" font-family="Times,serif" font-size="14.00">norm</text>
</a>
</g>
</g>
<!-- layer3_pool&#45;&gt;layer3_norm -->
<g id="edge25" class="edge"><title>layer3_pool-&gt;layer3_norm</title>
<path fill="none" stroke="black" d="M2124.4,-79C2132.39,-79 2141.31,-79 2149.82,-79"/>
<polygon fill="black" stroke="black" points="2149.92,-82.5001 2159.92,-79 2149.92,-75.5001 2149.92,-82.5001"/>
</g>
<!-- layer3_act -->
<g id="node25" class="node"><title>layer3_act</title>
<g id="a_node25"><a xlink:title="functools.partial(&lt;class 'torch.nn.modules.activation.CELU'&gt;, 0.3) {}">
<path fill="#f0e189" stroke="black" d="M2292,-97C2292,-97 2262,-97 2262,-97 2256,-97 2250,-91 2250,-85 2250,-85 2250,-73 2250,-73 2250,-67 2256,-61 2262,-61 2262,-61 2292,-61 2292,-61 2298,-61 2304,-67 2304,-73 2304,-73 2304,-85 2304,-85 2304,-91 2298,-97 2292,-97"/>
<text text-anchor="middle" x="2277" y="-75.3" font-family="Times,serif" font-size="14.00">act</text>
</a>
</g>
</g>
<!-- layer3_norm&#45;&gt;layer3_act -->
<g id="edge26" class="edge"><title>layer3_norm-&gt;layer3_act</title>
<path fill="none" stroke="black" d="M2214.4,-79C2222.39,-79 2231.31,-79 2239.82,-79"/>
<polygon fill="black" stroke="black" points="2239.92,-82.5001 2249.92,-79 2239.92,-75.5001 2239.92,-82.5001"/>
</g>
<!-- layer3_residual_in -->
<g id="node26" class="node"><title>layer3_residual_in</title>
<g id="a_node26"><a xlink:title="&lt;class '__main__.Identity'&gt; {}">
<path fill="#80b1d3" stroke="black" d="M2382,-97C2382,-97 2352,-97 2352,-97 2346,-97 2340,-91 2340,-85 2340,-85 2340,-73 2340,-73 2340,-67 2346,-61 2352,-61 2352,-61 2382,-61 2382,-61 2388,-61 2394,-67 2394,-73 2394,-73 2394,-85 2394,-85 2394,-91 2388,-97 2382,-97"/>
<text text-anchor="middle" x="2367" y="-75.3" font-family="Times,serif" font-size="14.00">in</text>
</a>
</g>
</g>
<!-- layer3_act&#45;&gt;layer3_residual_in -->
<g id="edge27" class="edge"><title>layer3_act-&gt;layer3_residual_in</title>
<path fill="none" stroke="black" d="M2304.4,-79C2312.39,-79 2321.31,-79 2329.82,-79"/>
<polygon fill="black" stroke="black" points="2329.92,-82.5001 2339.92,-79 2329.92,-75.5001 2329.92,-82.5001"/>
</g>
<!-- layer3_residual_res1_conv -->
<g id="node27" class="node"><title>layer3_residual_res1_conv</title>
<g id="a_node27"><a xlink:title="&lt;class 'torch.nn.modules.conv.Conv2d'&gt; {'in_channels': 512, 'out_channels': 512, 'kernel_size': (3, 3), 'stride': (1, 1), 'padding': (1, 1), 'bias': False}">
<path fill="#bebada" stroke="black" d="M2472,-68C2472,-68 2442,-68 2442,-68 2436,-68 2430,-62 2430,-56 2430,-56 2430,-44 2430,-44 2430,-38 2436,-32 2442,-32 2442,-32 2472,-32 2472,-32 2478,-32 2484,-38 2484,-44 2484,-44 2484,-56 2484,-56 2484,-62 2478,-68 2472,-68"/>
<text text-anchor="middle" x="2457" y="-46.3" font-family="Times,serif" font-size="14.00">conv</text>
</a>
</g>
</g>
<!-- layer3_residual_in&#45;&gt;layer3_residual_res1_conv -->
<g id="edge28" class="edge"><title>layer3_residual_in-&gt;layer3_residual_res1_conv</title>
<path fill="none" stroke="black" d="M2394.4,-70.299C2402.57,-67.608 2411.7,-64.5979 2420.38,-61.7368"/>
<polygon fill="black" stroke="black" points="2421.52,-65.049 2429.92,-58.5949 2419.33,-58.4007 2421.52,-65.049"/>
</g>
<!-- layer3_residual_add -->
<g id="node34" class="node"><title>layer3_residual_add</title>
<g id="a_node34"><a xlink:title="&lt;class '__main__.Add'&gt; {}">
<path fill="#fdb462" stroke="black" d="M3102,-93C3102,-93 3072,-93 3072,-93 3066,-93 3060,-87 3060,-81 3060,-81 3060,-69 3060,-69 3060,-63 3066,-57 3072,-57 3072,-57 3102,-57 3102,-57 3108,-57 3114,-63 3114,-69 3114,-69 3114,-81 3114,-81 3114,-87 3108,-93 3102,-93"/>
<text text-anchor="middle" x="3087" y="-71.3" font-family="Times,serif" font-size="14.00">add</text>
</a>
</g>
</g>
<!-- layer3_residual_in&#45;&gt;layer3_residual_add -->
<g id="edge35" class="edge"><title>layer3_residual_in-&gt;layer3_residual_add</title>
<path fill="none" stroke="black" d="M2394.22,-93.0359C2402.83,-96.9904 2412.61,-100.808 2422,-103 2475.71,-115.535 2490.84,-108 2546,-108 2546,-108 2546,-108 2908,-108 2957.77,-108 3014.08,-95.3711 3049.8,-85.7384"/>
<polygon fill="black" stroke="black" points="3051.04,-89.0265 3059.74,-82.9884 3049.17,-82.2796 3051.04,-89.0265"/>
</g>
<!-- layer3_residual_res1_norm -->
<g id="node28" class="node"><title>layer3_residual_res1_norm</title>
<g id="a_node28"><a xlink:title="functools.partial(&lt;class '__main__.GhostBatchNorm'&gt;, num_splits=16, weight=False) {'num_features': 512}">
<path fill="#d0c281" stroke="black" d="M2562,-68C2562,-68 2532,-68 2532,-68 2526,-68 2520,-62 2520,-56 2520,-56 2520,-44 2520,-44 2520,-38 2526,-32 2532,-32 2532,-32 2562,-32 2562,-32 2568,-32 2574,-38 2574,-44 2574,-44 2574,-56 2574,-56 2574,-62 2568,-68 2562,-68"/>
<text text-anchor="middle" x="2547" y="-46.3" font-family="Times,serif" font-size="14.00">norm</text>
</a>
</g>
</g>
<!-- layer3_residual_res1_conv&#45;&gt;layer3_residual_res1_norm -->
<g id="edge29" class="edge"><title>layer3_residual_res1_conv-&gt;layer3_residual_res1_norm</title>
<path fill="none" stroke="black" d="M2484.4,-50C2492.39,-50 2501.31,-50 2509.82,-50"/>
<polygon fill="black" stroke="black" points="2509.92,-53.5001 2519.92,-50 2509.92,-46.5001 2509.92,-53.5001"/>
</g>
<!-- layer3_residual_res1_act -->
<g id="node29" class="node"><title>layer3_residual_res1_act</title>
<g id="a_node29"><a xlink:title="functools.partial(&lt;class 'torch.nn.modules.activation.CELU'&gt;, 0.3) {}">
<path fill="#f0e189" stroke="black" d="M2652,-68C2652,-68 2622,-68 2622,-68 2616,-68 2610,-62 2610,-56 2610,-56 2610,-44 2610,-44 2610,-38 2616,-32 2622,-32 2622,-32 2652,-32 2652,-32 2658,-32 2664,-38 2664,-44 2664,-44 2664,-56 2664,-56 2664,-62 2658,-68 2652,-68"/>
<text text-anchor="middle" x="2637" y="-46.3" font-family="Times,serif" font-size="14.00">act</text>
</a>
</g>
</g>
<!-- layer3_residual_res1_norm&#45;&gt;layer3_residual_res1_act -->
<g id="edge30" class="edge"><title>layer3_residual_res1_norm-&gt;layer3_residual_res1_act</title>
<path fill="none" stroke="black" d="M2574.4,-50C2582.39,-50 2591.31,-50 2599.82,-50"/>
<polygon fill="black" stroke="black" points="2599.92,-53.5001 2609.92,-50 2599.92,-46.5001 2599.92,-53.5001"/>
</g>
<!-- layer3_residual_res2_conv -->
<g id="node30" class="node"><title>layer3_residual_res2_conv</title>
<g id="a_node30"><a xlink:title="&lt;class 'torch.nn.modules.conv.Conv2d'&gt; {'in_channels': 512, 'out_channels': 512, 'kernel_size': (3, 3), 'stride': (1, 1), 'padding': (1, 1), 'bias': False}">
<path fill="#bebada" stroke="black" d="M2742,-68C2742,-68 2712,-68 2712,-68 2706,-68 2700,-62 2700,-56 2700,-56 2700,-44 2700,-44 2700,-38 2706,-32 2712,-32 2712,-32 2742,-32 2742,-32 2748,-32 2754,-38 2754,-44 2754,-44 2754,-56 2754,-56 2754,-62 2748,-68 2742,-68"/>
<text text-anchor="middle" x="2727" y="-46.3" font-family="Times,serif" font-size="14.00">conv</text>
</a>
</g>
</g>
<!-- layer3_residual_res1_act&#45;&gt;layer3_residual_res2_conv -->
<g id="edge31" class="edge"><title>layer3_residual_res1_act-&gt;layer3_residual_res2_conv</title>
<path fill="none" stroke="black" d="M2664.4,-50C2672.39,-50 2681.31,-50 2689.82,-50"/>
<polygon fill="black" stroke="black" points="2689.92,-53.5001 2699.92,-50 2689.92,-46.5001 2689.92,-53.5001"/>
</g>
<!-- layer3_residual_res2_norm -->
<g id="node31" class="node"><title>layer3_residual_res2_norm</title>
<g id="a_node31"><a xlink:title="functools.partial(&lt;class '__main__.GhostBatchNorm'&gt;, num_splits=16, weight=False) {'num_features': 512}">
<path fill="#d0c281" stroke="black" d="M2832,-68C2832,-68 2802,-68 2802,-68 2796,-68 2790,-62 2790,-56 2790,-56 2790,-44 2790,-44 2790,-38 2796,-32 2802,-32 2802,-32 2832,-32 2832,-32 2838,-32 2844,-38 2844,-44 2844,-44 2844,-56 2844,-56 2844,-62 2838,-68 2832,-68"/>
<text text-anchor="middle" x="2817" y="-46.3" font-family="Times,serif" font-size="14.00">norm</text>
</a>
</g>
</g>
<!-- layer3_residual_res2_conv&#45;&gt;layer3_residual_res2_norm -->
<g id="edge32" class="edge"><title>layer3_residual_res2_conv-&gt;layer3_residual_res2_norm</title>
<path fill="none" stroke="black" d="M2754.4,-50C2762.39,-50 2771.31,-50 2779.82,-50"/>
<polygon fill="black" stroke="black" points="2779.92,-53.5001 2789.92,-50 2779.92,-46.5001 2779.92,-53.5001"/>
</g>
<!-- layer3_residual_res2_act -->
<g id="node32" class="node"><title>layer3_residual_res2_act</title>
<g id="a_node32"><a xlink:title="functools.partial(&lt;class 'torch.nn.modules.activation.CELU'&gt;, 0.3) {}">
<path fill="#f0e189" stroke="black" d="M2922,-68C2922,-68 2892,-68 2892,-68 2886,-68 2880,-62 2880,-56 2880,-56 2880,-44 2880,-44 2880,-38 2886,-32 2892,-32 2892,-32 2922,-32 2922,-32 2928,-32 2934,-38 2934,-44 2934,-44 2934,-56 2934,-56 2934,-62 2928,-68 2922,-68"/>
<text text-anchor="middle" x="2907" y="-46.3" font-family="Times,serif" font-size="14.00">act</text>
</a>
</g>
</g>
<!-- layer3_residual_res2_norm&#45;&gt;layer3_residual_res2_act -->
<g id="edge33" class="edge"><title>layer3_residual_res2_norm-&gt;layer3_residual_res2_act</title>
<path fill="none" stroke="black" d="M2844.4,-50C2852.39,-50 2861.31,-50 2869.82,-50"/>
<polygon fill="black" stroke="black" points="2869.92,-53.5001 2879.92,-50 2869.92,-46.5001 2869.92,-53.5001"/>
</g>
<!-- layer3_residual_out -->
<g id="node33" class="node"><title>layer3_residual_out</title>
<g id="a_node33"><a xlink:title="&lt;class '__main__.Identity'&gt; {}">
<path fill="#80b1d3" stroke="black" d="M3012,-78C3012,-78 2982,-78 2982,-78 2976,-78 2970,-72 2970,-66 2970,-66 2970,-54 2970,-54 2970,-48 2976,-42 2982,-42 2982,-42 3012,-42 3012,-42 3018,-42 3024,-48 3024,-54 3024,-54 3024,-66 3024,-66 3024,-72 3018,-78 3012,-78"/>
<text text-anchor="middle" x="2997" y="-56.3" font-family="Times,serif" font-size="14.00">out</text>
</a>
</g>
</g>
<!-- layer3_residual_res2_act&#45;&gt;layer3_residual_out -->
<g id="edge34" class="edge"><title>layer3_residual_res2_act-&gt;layer3_residual_out</title>
<path fill="none" stroke="black" d="M2934.4,-53.0003C2942.39,-53.9083 2951.31,-54.9217 2959.82,-55.8891"/>
<polygon fill="black" stroke="black" points="2959.59,-59.3847 2969.92,-57.0362 2960.38,-52.4294 2959.59,-59.3847"/>
</g>
<!-- layer3_residual_out&#45;&gt;layer3_residual_add -->
<g id="edge36" class="edge"><title>layer3_residual_out-&gt;layer3_residual_add</title>
<path fill="none" stroke="black" d="M3024.4,-64.5005C3032.39,-65.8625 3041.31,-67.3825 3049.82,-68.8336"/>
<polygon fill="black" stroke="black" points="3049.47,-72.3242 3059.92,-70.5544 3050.65,-65.4237 3049.47,-72.3242"/>
</g>
<!-- pool -->
<g id="node35" class="node"><title>pool</title>
<g id="a_node35"><a xlink:title="&lt;class 'torch.nn.modules.pooling.MaxPool2d'&gt; {'kernel_size': 4}">
<path fill="#8dd3c7" stroke="black" d="M3192,-93C3192,-93 3162,-93 3162,-93 3156,-93 3150,-87 3150,-81 3150,-81 3150,-69 3150,-69 3150,-63 3156,-57 3162,-57 3162,-57 3192,-57 3192,-57 3198,-57 3204,-63 3204,-69 3204,-69 3204,-81 3204,-81 3204,-87 3198,-93 3192,-93"/>
<text text-anchor="middle" x="3177" y="-71.3" font-family="Times,serif" font-size="14.00">pool</text>
</a>
</g>
</g>
<!-- layer3_residual_add&#45;&gt;pool -->
<g id="edge37" class="edge"><title>layer3_residual_add-&gt;pool</title>
<path fill="none" stroke="black" d="M3114.4,-75C3122.39,-75 3131.31,-75 3139.82,-75"/>
<polygon fill="black" stroke="black" points="3139.92,-78.5001 3149.92,-75 3139.92,-71.5001 3139.92,-78.5001"/>
</g>
<!-- classifier_flatten -->
<g id="node36" class="node"><title>classifier_flatten</title>
<g id="a_node36"><a xlink:title="&lt;class '__main__.Flatten'&gt; {}">
<path fill="#b3de69" stroke="black" d="M3282,-93C3282,-93 3252,-93 3252,-93 3246,-93 3240,-87 3240,-81 3240,-81 3240,-69 3240,-69 3240,-63 3246,-57 3252,-57 3252,-57 3282,-57 3282,-57 3288,-57 3294,-63 3294,-69 3294,-69 3294,-81 3294,-81 3294,-87 3288,-93 3282,-93"/>
<text text-anchor="middle" x="3267" y="-71.3" font-family="Times,serif" font-size="14.00">flatten</text>
</a>
</g>
</g>
<!-- pool&#45;&gt;classifier_flatten -->
<g id="edge38" class="edge"><title>pool-&gt;classifier_flatten</title>
<path fill="none" stroke="black" d="M3204.4,-75C3212.39,-75 3221.31,-75 3229.82,-75"/>
<polygon fill="black" stroke="black" points="3229.92,-78.5001 3239.92,-75 3229.92,-71.5001 3229.92,-78.5001"/>
</g>
<!-- classifier_conv -->
<g id="node37" class="node"><title>classifier_conv</title>
<g id="a_node37"><a xlink:title="&lt;class 'torch.nn.modules.linear.Linear'&gt; {'in_features': 512, 'out_features': 10, 'bias': False}">
<path fill="#fccde5" stroke="black" d="M3372,-93C3372,-93 3342,-93 3342,-93 3336,-93 3330,-87 3330,-81 3330,-81 3330,-69 3330,-69 3330,-63 3336,-57 3342,-57 3342,-57 3372,-57 3372,-57 3378,-57 3384,-63 3384,-69 3384,-69 3384,-81 3384,-81 3384,-87 3378,-93 3372,-93"/>
<text text-anchor="middle" x="3357" y="-71.3" font-family="Times,serif" font-size="14.00">conv</text>
</a>
</g>
</g>
<!-- classifier_flatten&#45;&gt;classifier_conv -->
<g id="edge39" class="edge"><title>classifier_flatten-&gt;classifier_conv</title>
<path fill="none" stroke="black" d="M3294.4,-75C3302.39,-75 3311.31,-75 3319.82,-75"/>
<polygon fill="black" stroke="black" points="3319.92,-78.5001 3329.92,-75 3319.92,-71.5001 3319.92,-78.5001"/>
</g>
<!-- classifier_scale -->
<g id="node38" class="node"><title>classifier_scale</title>
<g id="a_node38"><a xlink:title="&lt;class '__main__.Mul'&gt; {'weight': 0.0625}">
<path fill="#bc80bd" stroke="black" d="M3462,-93C3462,-93 3432,-93 3432,-93 3426,-93 3420,-87 3420,-81 3420,-81 3420,-69 3420,-69 3420,-63 3426,-57 3432,-57 3432,-57 3462,-57 3462,-57 3468,-57 3474,-63 3474,-69 3474,-69 3474,-81 3474,-81 3474,-87 3468,-93 3462,-93"/>
<text text-anchor="middle" x="3447" y="-71.3" font-family="Times,serif" font-size="14.00">scale</text>
</a>
</g>
</g>
<!-- classifier_conv&#45;&gt;classifier_scale -->
<g id="edge40" class="edge"><title>classifier_conv-&gt;classifier_scale</title>
<path fill="none" stroke="black" d="M3384.4,-75C3392.39,-75 3401.31,-75 3409.82,-75"/>
<polygon fill="black" stroke="black" points="3409.92,-78.5001 3419.92,-75 3409.92,-71.5001 3409.92,-78.5001"/>
</g>
<!-- logits -->
<g id="node39" class="node"><title>logits</title>
<g id="a_node39"><a xlink:title="&lt;class '__main__.Identity'&gt; {}">
<path fill="#80b1d3" stroke="black" d="M3552,-93C3552,-93 3522,-93 3522,-93 3516,-93 3510,-87 3510,-81 3510,-81 3510,-69 3510,-69 3510,-63 3516,-57 3522,-57 3522,-57 3552,-57 3552,-57 3558,-57 3564,-63 3564,-69 3564,-69 3564,-81 3564,-81 3564,-87 3558,-93 3552,-93"/>
<text text-anchor="middle" x="3537" y="-71.3" font-family="Times,serif" font-size="14.00">logits</text>
</a>
</g>
</g>
<!-- classifier_scale&#45;&gt;logits -->
<g id="edge41" class="edge"><title>classifier_scale-&gt;logits</title>
<path fill="none" stroke="black" d="M3474.4,-75C3482.39,-75 3491.31,-75 3499.82,-75"/>
<polygon fill="black" stroke="black" points="3499.92,-78.5001 3509.92,-75 3499.92,-71.5001 3499.92,-78.5001"/>
</g>
<!-- input -->
<g id="node40" class="node"><title>input</title>
<path fill="#ffffff" stroke="black" d="M42,-92C42,-92 12,-92 12,-92 6,-92 0,-86 0,-80 0,-80 0,-68 0,-68 0,-62 6,-56 12,-56 12,-56 42,-56 42,-56 48,-56 54,-62 54,-68 54,-68 54,-80 54,-80 54,-86 48,-92 42,-92"/>
<text text-anchor="middle" x="27" y="-70.3" font-family="Times,serif" font-size="14.00">input</text>
</g>
<!-- input&#45;&gt;prep_whiten -->
<g id="edge1" class="edge"><title>input-&gt;prep_whiten</title>
<path fill="none" stroke="black" d="M54.4029,-74C62.3932,-74 71.3106,-74 79.8241,-74"/>
<polygon fill="black" stroke="black" points="79.919,-77.5001 89.919,-74 79.919,-70.5001 79.919,-77.5001"/>
</g>
</g>
</svg>
